<svg xmlns="http://www.w3.org/2000/svg" viewBox="0 0 757.78 842.66">
  <defs>
    <style>
      .cls-1 {
        fill: #a54e9d;
      }

      .cls-2 {
        fill: #7d52a1;
      }
    </style>
  </defs>
  <title>Asset 2</title>
  <g id="Layer_2" data-name="Layer 2">
    <g id="Layer_1-2" data-name="Layer 1">
      <g>
        <path class="cls-1" d="M367.45,213l-81.86.1-15.3,90.82,52.89-.05,35.35,0c9.05,0,17.85-.33,26.13-1,1.39-.11,2.75-.24,4.12-.37l5.69-33.76c-1.43.21-.33,1.93,0,0,.37-1.15.13-1.33.43-2.58l4.34-25.76,4.63-27.45L375,213m-2.52,0h-2.69"/>
        <path class="cls-1" d="M299.07,133.37l0,.16h0l-2.9,17.21-3.84,22.79c.08.06-.08.21,0,.26a35,35,0,0,1-.76,4.93c-.11.25,0,.57-.22.61L291,181l-.21,1.3,66.19-.09,24.05,0v-.36h1.09v.36l26.94,0,0-.14,86-.11a48.21,48.21,0,0,0-9.26-20.74,47.68,47.68,0,0,0-10.93-9.91c-1.28-.83-2.61-1.64-4.08-2.47-14.54-8.11-36.11-13.08-64.32-14.83m13.67,9.73Zm-88,34.34c.36.35-.22-.23,0,0Z"/>
        <path class="cls-1" d="M209.13,666.85a2,2,0,0,0,.24-1c2.2.63.16,2.36-.72,3.85l-.79,4.67H262l64.15,0,35-207.91,77.94,0q-2.05-1.32-4.22-2.52c-19.76-11-48.37-16.57-85-16.57h-.27l-103.45.08-12.94,76.8a3.76,3.76,0,0,0,2.27.5c-.22,1-1.51,1.68-2.67,1.86l-8,47.67c1.86.73,3.49,1.94,3.64,3.89-1.91.1-3.13.12-4.33.17l-13.8,81.9Zm68.14-8.6c-2.51-1.08.65-3.54,0,0Zm2.17,13.08Zm2.17,1.09c-.42,1-.58-.33-.54-1.09C279.46,670.55,282.33,670.91,281.61,672.42Zm57.58-194c-.07,1.94.39,4.4-1.63,4.37C337.73,480.91,336.84,478,339.19,478.37Zm-6.52-8.71a13.54,13.54,0,0,1,1.09,4.35c-2.71.36-2.12-2.59-3.26-3.81C330.67,469.46,331.86,469.75,332.67,469.66Zm-5.43,103.56v1.63h-1.63C325.51,573.66,326.06,573.12,327.24,573.22Zm-12.49,69.22c3.67.76,5.57-.09,8.69,1.09-2.38,3.82-5.73,1.12-9.24,1.63A3.54,3.54,0,0,1,314.75,642.44Zm-15.21-56.69c.1,1.19-.45,1.74-1.63,1.64C298.49,586.88,298.07,585.38,299.54,585.75Zm-4.35,69.77c.94,3.64-11.22,5.64-15.21,2.73-.23-.17,2.47-2.53-.54-1.09C283.36,653.38,293.81,650.17,295.19,655.52Zm-19-38.15c1.33,1.2,3.56,1.52,3.8,3.81-.47,1.91-3.72,1.35-4.34,1.64C274,621.27,276,618.88,276.18,617.37Zm-1.63,1.08c.32,2.41-2.3,1.24-3.26.55C270.53,617.26,274.54,617.62,274.55,618.45ZM269.66,661c.74.17.45,1.37.54,2.18C269,663,269,661.7,269.66,661Zm1.09,8.72c.16,1.26-1.57.61-1.64,1.64C267.7,670.79,269.75,668,270.75,669.69ZM266.4,490.91c1.83-1.32-1.31,1.83,0,0ZM220.23,649.52c4.09-1.22,5.64,4.78,8.15,1.64,1.12.47.57,3.8,0,4.36-1.26-2.55-6.35-1.26-8.69-2.73C219.3,651.13,220.24,650.81,220.23,649.52Zm-7.07,9.27c1.72,1.76-1.67,3-1.62,4.91C210.17,662.28,212.73,660.2,213.16,658.79Z"/>
        <path class="cls-1" d="M752.52,185.79c-.4-1.49-.82-2.95-1.26-4.41a114.21,114.21,0,0,0-20-38.33c-.89-1.1-1.78-2.2-2.73-3.28-1.88-2.19-3.88-4.3-6-6.35q-3.72-3.69-7.84-7.09c-3.19.5-10.28-5.1-11.08-8.16a160.88,160.88,0,0,0-25.28-13.35c.2.63.4,1.25.6,1.89v.05c.5,1.67,1,3.43,1.54,5.41l0,.06,0,.06c1,3.76,1.88,7.56,2.63,11.31,3.86,19.53,4.82,41.38,2.83,64.94-.12,1.45-.26,3-.44,4.73a283.9,283.9,0,0,1-12.28,60,3.59,3.59,0,0,1,4.78,2.76c-.63-.09-1,.12-1.09.55a9.15,9.15,0,0,0-3.82-2.94c-8.35,25.49-20.36,48.17-36,67.78C620.91,342,601.92,358,580.7,369.16c4.14,2,8.13,4.22,11.9,6.46,2.82,1.68,5.68,3.49,8.49,5.4,1.46,1,3,2,4.47,3.15a144.19,144.19,0,0,1,27.74,26.45,135.27,135.27,0,0,0,18.88-4.83q4.67-1.57,9.18-3.48Q692.92,389,716.6,359.18C739,331,752.29,295.4,756.55,252.66c.14-1.35.26-2.68.37-4q2.51-29.67-2.28-53.75Q753.71,190.24,752.52,185.79Zm-78.17,94.73c.06-1.57,2.32-.95,2.17-2.73C677.88,278.67,676.5,281.36,674.35,280.52Zm3.8-23.44c.11-1.63,2.26.52,0,0Zm12.49,113.37c-1.53-.45-1.4.77-2.71.55-1.35-1.11-.75-2.23,0-3.82,1.28.7,1-.07,2.71.55Zm-5.43-167.33c-1.5-4,2.18-7.18,5.43-8.18C690.64,199.48,688.81,202.18,685.21,203.12Zm7.07-8.18h-1.09v-1.09h1.09Zm18.47,164.61c-2-.95-2-4.61,0-5.45C714.11,354.09,713.19,359.36,710.75,359.55Zm-6.52-227.84c-1.35-6.78,9.13-2.19,9.23,3.28C709.06,135.37,704.67,134,704.23,131.71Zm14.12,193.5c-3.76,3.8-6.51-4.71-.54-3.81C718.55,322.1,718.34,323.76,718.35,325.21ZM720,161.69c-1.41.33-2-.22-1.63-1.63H720Zm1.63,35.43c.11-1.7-.37-4,.54-4.9a3.85,3.85,0,0,1,2.18,3.81C723.29,196.27,723,197.21,721.61,197.12ZM737.9,155.7c1,.13,1.24.94,1.09,2.18C737.36,158.43,738,156.66,737.9,155.7Zm-2.71,151.52c-5,1-4.67-5.24,0-4.35C735.54,304.11,736.27,306.15,735.19,307.22Zm2.17-7.63c.19-.65,1.45-.44,1.63,0C739.49,300.78,737,300.86,737.36,299.59Zm-2.72-88.29h2.18c.83,2.07,2.19,3.61,2.72,6C735.8,217.4,735.31,214.26,734.64,211.3ZM736.28,189c-.11-5,3.12-6.68,3.26-11.45C742,181.44,740.46,187.7,736.28,189Zm7.6,111.73c.35.36-.23-.22,0,0Zm0-3.81c-.39-2.76,2.17-7.26,2.71-10.9C751.46,288.7,747,295.49,743.88,296.87Zm12-67Z"/>
        <path class="cls-1" d="M739,571.58a5.09,5.09,0,0,1,3.12.44,252.66,252.66,0,0,0-2.34-41.83q-4.51-30.93-17.46-53.76c-.53-.93-1.07-1.87-1.63-2.78a109.09,109.09,0,0,0-29.31-31.59c-1.14-.84-2.32-1.67-3.52-2.48-2.18-1.48-4.43-2.92-6.76-4.3a147.87,147.87,0,0,0-14.85-7.69c-.74-.34-1.5-.67-2.26-1-1.42-.62-2.86-1.23-4.32-1.81a199.64,199.64,0,0,0-21.09-7.07q2.45,3.5,4.66,7.12c.7,1.15,1.41,2.36,2.11,3.61,10.72,18.94,18,41.26,21.67,66.34,3.47,23.74,3.79,50.7,1,80.13C659.48,663,623,733.6,559.62,784.81c-.34.28-.7.55-1,.82a325.66,325.66,0,0,1-67.47,41.55.48.48,0,0,0,.18,0c-.13.84-.64.76-1,.33A355.58,355.58,0,0,1,452,842.44c79.12-2.35,144.74-24.4,196.31-65.75l.78-.6C703,732.54,733.34,673,740.53,598.4q1.31-13.51,1.57-26C741.4,573,738.31,573.13,739,571.58ZM494.55,833.21c-1.08,0-.69-1.48-2.18-1.09.18-2.11,1.53-3,3.27-2.18C495.9,831.65,494,831.17,494.55,833.21Zm1.63,2.73c-.64-.09-.45-1-.54-1.64C497.44,833.93,496.51,835.43,496.18,835.94ZM520.62,819c.44-1.16,2.24-2.13,3.26-1.09A2,2,0,0,1,520.62,819Zm57.59-10.9c.14-2.4,3.72-1.35,4.88-2.72C584.24,807,580,807.73,578.21,808.14Zm19.54-19.08c.32-2.18-.45,3.22,0,0Zm1.09,1.09c2.29-1,5.3,1.43,5.44,4.36C602.79,792.73,599.89,792.37,598.84,790.15ZM620,789.06c2.24-.71,8-2.69,8.69,0C627.78,793.29,621.33,792.75,620,789.06Zm99.41-254.54c.35.36-.23-.23,0,0Zm-1.09.54c.35.36-.23-.23,0,0Zm-2.18,0c.11-1.63,2.26.52,0,0Zm-3.8-42c-1.13,1.08-3.6.42-4.89,0C707.49,489,712.9,488.08,712.37,493.09Zm-2.71,3.82c1,.13,1.24.94,1.09,2.18h-1.64C709.05,498.11,709.78,497.94,709.66,496.91Zm-30.42,38.15c.11-1.63,2.26.52,0,0Zm-1.09-49c-.12.95-.93,1.24-2.17,1.09C676.05,485.08,676.77,485.72,678.15,486Zm-2.71-20.72h1.08v1.09h-1.08ZM673.26,625c1.77,0,2,3.29,1.09,4.36C673.1,628.8,673.22,626.85,673.26,625Zm-14.13,34.34c-1,.07-1.14-.67-2.16-.55.21-2.25,1.62-.31,1.63-2.18C660,656.67,659.88,658.64,659.13,659.34Zm5.44,4.9c-3.43-.29-1.64-3.42-.54-4.9a2.62,2.62,0,0,0,1.63.54C664.37,661.57,665.07,662.42,664.57,664.24Zm16.84,9.81c-2.17-2.66-9.2-3.87-10.86-8.71-1.7-.28-1.44,1.87-2.72.54-1.3-2.13.51-5.1,3.8-4.36-.39,1.66.56,2,.54,3.27,2.4,2.05,5.92-.32,8.16-2.73.63.82,1.57,1.33,1.62,2.73C675.19,665.05,682.32,671,681.41,674.05Zm2.72-1.09v-1.63C685.71,670.53,685.71,673.76,684.13,673Zm-3.27-139a34.17,34.17,0,0,0,7.07,0C687.85,535.75,681,535.75,680.86,534Zm10.33,1.64c3.7-2.5,6.54,2.46,8.69,1.63C697.94,539.67,694.11,535.71,691.19,535.61Zm10.87-57.24c.3,1.21-1,.78-1.09,1.64C699.61,479.79,700.94,477.9,702.06,478.37Zm-1.09,61v-1.09C702.94,538.47,702.57,540.63,701,539.42Zm1.09,141.72H701c.1-.46-.22-.51-.55-.55.09-.64,1-.46,1.64-.54-.79-1.58-.42-.61,1.08-.55C702.79,680.06,701.89,680.07,702.06,681.14Zm1.62-1.64c-.25-1.16.78-1,1.64-1.09A1.51,1.51,0,0,1,703.68,679.5Zm-.54-215.84c0-1.59,3.07-1.29,3.81-.54C706.14,464.93,704.5,464.73,703.14,463.66ZM707.48,625c-1.27-.14-.3-2.4,0-2.73C708.76,622.41,707.8,624.67,707.48,625Zm1.63,39.79c.19-.72,1-.86,1.09-1.64C712,663.46,711,665.26,709.11,664.79Zm.55-122.64c5.4-.69,12.81,1.3,16.29,4.36C719.92,545.66,714.9,543.79,709.66,542.15Zm19,4.36c-2,1.91-2.65-2.07,0,0Zm3.81,26.71c.78-1.52,3.85-1.27,6-.55C736.52,573.92,734.93,572.31,732.48,573.22Z"/>
        <path class="cls-2" d="M129.56,172.37l-2.79,14.44M114.1,252.39,99.38,328.52c.15.83.19,1.77.26,2.69a5.26,5.26,0,0,1-.73-.28L42.31,623.76a5,5,0,0,0,2.47,2.33c-.7,7.17-.27,15.5-1.64,7.08-.35-2.15-1.07-3.25-1.08-6.54l-.29-.06L35.9,656.91l83.71,0H159c.16-.36.36-.68.42-.8,1-.07,1.15.66,2.17.54a.73.73,0,0,1-.09.26h29l25.89-153.69a10.41,10.41,0,0,1-2.63-.27,4.31,4.31,0,0,1,2.91-1.39l1.21-7.16a3.62,3.62,0,0,1-2.49-5.62,12.9,12.9,0,0,1,3.23,1.23l10.55-62.64,120.42-.08h.29c40.44,0,71.71,6.25,94.8,19.09a95.65,95.65,0,0,1,20.24,14.91c1.46,1.42,2.89,2.91,4.24,4.42s2.67,3.1,3.91,4.69,2.44,3.31,3.57,5c13.42,20.32,18.29,46.8,14.37,78.86a228.8,228.8,0,0,1-4.46,25.06c-.87,3.61-1.82,7.17-2.84,10.54l-.08.32c-9.09,30.1-24.75,54.41-46.62,72.09a140.73,140.73,0,0,1-35.44,20.7c-1.18.47-2.36.94-3.56,1.4-1.91.73-3.92,1.44-6.16,2.19C370,693.9,344.1,697.65,315,697.66l-131.44,0v-.08H163.13c0,.45.06.94.06,1.5-2.64.46-3.7-.39-3.89-1.5h-26a8.17,8.17,0,0,1,0,1.49c-.81,0-1.06-.68-1.11-1.49L28,697.65l-28,145H305.8a43.77,43.77,0,0,1,.25-5.09c2,.68,2.27,2.63,2.21,5.09h5.43a471.36,471.36,0,0,0,79.88-6.51,3.4,3.4,0,0,0,1-.76,2.14,2.14,0,0,1,.25.54q88.11-15.45,151.32-66.1c.28-.21.58-.44.86-.67C606.56,721.09,640,655.32,648,573a374.58,374.58,0,0,0,1.82-37.81c-6,1-13,.51-18.35-.12,2.67-1.78,11.75-1.48,18.35-1.23a267.8,267.8,0,0,0-2.66-36.15q-5-34.14-19.27-59.35c-.58-1-1.19-2.06-1.8-3.07a120.43,120.43,0,0,0-32.36-34.88c-1.26-.92-2.56-1.84-3.88-2.73q-3.62-2.46-7.47-4.76A162.71,162.71,0,0,0,566,384.41l-2.5-1.1c-1.56-.69-3.16-1.36-4.77-2A230.59,230.59,0,0,0,528,371.55l.68-5.69a149.84,149.84,0,0,0,21.77-5.52q5.16-1.74,10.14-3.84,34.84-14.75,61-47.62,30.18-38,40.43-92c-.22,0-.44-.07-.68-.13a4.64,4.64,0,0,1,1.13-2.33q2-11.24,3.23-23.13c.15-1.5.28-3,.4-4.43a225.8,225.8,0,0,0-.76-48.66,5.73,5.73,0,0,0-.74,1.16c-1.53-.73-1-3.09.27-4.42-.38-2.51-.8-5-1.29-7.42q-1-5.15-2.33-10.06c-.45-1.64-.91-3.26-1.4-4.87a133.44,133.44,0,0,0-9-22.28,3.44,3.44,0,0,1-2.51-.55,8.34,8.34,0,0,0,1.49-1.35,120.77,120.77,0,0,0-12-18.13c-1-1.22-2-2.44-3-3.63q-3.13-3.61-6.58-7a133.16,133.16,0,0,0-18.55-15.28Q569.68,17,496.05,6.53c-2.79,3.52-10.52,4.63-13.45.91,2.21-1.4,5.69,1.47,7.06-1.09a1.69,1.69,0,0,0-.18-.71c-1.07-.14-2.12-.29-3.21-.42a1.91,1.91,0,0,0-1,1.13A6,6,0,0,1,485,5.07Q443.17,0,391.13,0h-1.6L162.82.34l-14.46,74.8a5.47,5.47,0,0,0-1.08,5.56l-6.36,33,48.3-.06c.07-1.89,1-2.91,3.31-2.59a7.16,7.16,0,0,1-.09,2.58l32.07,0h5.22a7.3,7.3,0,0,1-.81-2.54c2.19-.3,2.49,1.29,3.15,2.53h.43c8.82-5.48,24.73-8.72,33.36-1.44,4.89-3.63,9.08,2.56,13.58-.54a12.35,12.35,0,0,0,3.75,1.75l65.23-.08v0c.48-.16.75-.12.92,0l32.08,0h.65c44.49,0,76.71,5.91,98.54,18.12,1.92,1.08,3.66,2.13,5.31,3.22a67,67,0,0,1,15.58,14.15c10.64,13.35,15.71,30.8,15,52.2-.12,4.06-.46,8.3-1,12.62-3.32,26.49-12.06,48.62-26,65.65a99.37,99.37,0,0,1-21.7,19.69,117.31,117.31,0,0,1-18,9.74c-.95.42-1.9.81-2.86,1.22l-2,.81a167.39,167.39,0,0,1-23.64,7.14c-3.33.76-6.77,1.44-10.29,2.06-7.73,1.35-16,2.38-24.78,3.06s-18,1-27.67,1l-35.35,0-76.67.07L268,196.5c-3.16.4-5.62-2.36-5.41-5.92,2.5-1.25,4.95-.78,6.21,1.18l2.37-14,5.11-30.3L135,147.58c1.32,2.49-1.24,3.65-1.65,5.94l-.1-.06-2.5,12.94M119.3,225.48,115,247.68a11.59,11.59,0,0,0,2.55.14m5.91-43.91L120,222.11M157.54,75.23a6.3,6.3,0,0,0-.89.07l-.13,0a4.46,4.46,0,0,0-.76.21l-.12,0,0,0a4.7,4.7,0,0,0-.6-.66,9.85,9.85,0,0,1,2.77.1,1.46,1.46,0,0,0,0,.2Zm10.17-33.86a4.49,4.49,0,0,0-2.37-2.46,3.39,3.39,0,0,1,3.83-.4A7.31,7.31,0,0,1,167.71,41.37Zm33.51-23c0-.24,0-.48-.05-.71a4.94,4.94,0,0,0,.88.37Zm11.19,45.83-1.42.38c-.63-.22-1.26-.46-1.89-.67a40.55,40.55,0,0,1,3.91-1.5A8.19,8.19,0,0,0,212.41,64.17Zm1.3,13.58c2.49.37-.43,3.3,0,0Zm7.87-29.81c-.13-.43-.26-.87-.38-1.3a1.38,1.38,0,0,1,1.2.59C222.37,47.71,222,47.83,221.58,47.94ZM243,98.47c1.16-2,3.69-.43,3.81,1.63C245.19,101.61,245.14,98.18,243,98.47Zm4.34-25.08c-1.18-.08-1.16-1.37-1.07-2.72C247.49,70.75,247.47,72,247.38,73.39Zm10.33,34.34c-.62-1.71.85-1.32,1.09-2.18.73.17.45,1.37.55,2.18ZM268,36.87a5.2,5.2,0,0,1-.42-1.66l.1-.05A33.15,33.15,0,0,1,271,34.05,2.78,2.78,0,0,1,268,36.87Zm16.83,54.51c-1.12,1.68-1.13,2.44-2.17,4.91-1.32-1.8-2.68-.19-5.43-.55a4.71,4.71,0,0,1-1.87-3.5c1.22-.09,2.45-.2,3.69-.38a58.51,58.51,0,0,0,10.17-2.36C288.22,91.41,286.67,92.43,284.87,91.38Zm10.86,4.91V95.2c.47.1.52-.22.55-.55.55.35.55,1.26,1.63,1.09C297.44,97.33,297.1,96.35,295.73,96.29Zm-3.25-69.77c3.65.52,5.42,2.91,5.43,7.08C295.26,34.23,291.87,29.1,292.48,26.52ZM305,48.87c-1.6-.4-2.29-1.7-2.17-3.82,1.34-.07,2.62-.08,3.25.55C306.17,47.16,305.92,48.36,305,48.87Zm19.55,59.41c-1.82.37-2-.92-2.17-2.18a3,3,0,0,1,2.17-.55Zm-5.43-36c-1.24-4.47,4.47-4.41,7.06-3.27C326.33,73.63,322.66,72.46,319.09,72.3Zm24.44,3.28c2-1.06,4.87-1.31,8.16-1.1C351.38,77.28,344,79.58,343.53,75.58Zm44.55,33.79c1-1,1,.32,2.72,0C391.74,113.08,387.28,112.62,388.08,109.37Zm13-32.71c-3.06-.24-2.31-4.45-.55-5.45C402.81,72.07,401.94,74.81,401.12,76.66Zm3.26-38.15h-1.09V37.42h1.09Zm5.43-3.82h-1.09V33.6h1.09ZM419,32c.23-1,.2-2.35,1.63-2.18C420.83,31.21,420.48,32.13,419,32Zm38.56-8.72h2.73C460.61,26,455.54,25.82,457.6,23.25Zm27.17,84.48c-8.38-1.84-14.18-2.92-17.93-9.26.89-2.12,1.42-3.57-.54-4.91a14.24,14.24,0,0,1,1.28-2.49c.67.94,1.36,1.86,2.05,2.78-.91,2.91.61,6.69,4.57,6.69.23,0,.46,0,.67,0,1.31,1.57,2.63,3.14,4,4.67a4.37,4.37,0,0,0,6.48.32A3.13,3.13,0,0,1,484.77,107.73Zm27.71-21.8h-1.09V83.75h1.09Zm-390,223.48c2.08-.08,2.62,1.37,4.35,1.63-.77,2.35-4-.31-4.35,1.09C121.18,312,122.14,309.74,122.45,309.41ZM120.82,447.3c.11-1.63,2.26.53,0,0Zm-4.88-140.62c2.17.91,2.89,3.27,5.42,3.82C121.06,311.88,115.11,310,115.94,306.68Zm-2.18-6c2-.51.76,2.15,1.09,3.27C113.9,303.45,113.65,302.25,113.76,300.68Zm-1.09-18.53c-.63-.09-.45-1-.54-1.63C113.94,280.14,113,281.64,112.67,282.15ZM111,293.6c-1.13-.5-1.65-1.61-1.62-3.27C110.55,290.82,111.07,291.94,111,293.6Zm-4.88,36c2.06-.44.69,2.58,1.08,3.82C106,333,105,330.75,106.16,329.57Zm-18.47,326c.28-.8.8-1.37,1.08-2.18C90.09,653.68,89.06,656.09,87.69,655.52ZM95.83,546c-1.28,1.76-2.19-1.91,0,0Zm2.72-177.69a3.59,3.59,0,0,1,.54-2.72C100.27,366,100.76,368.59,98.55,368.27Zm2.18,179.33V546c1.51-1.55,6.26.36,7-.54C108.42,547.93,103.58,548.78,100.73,547.6Zm4.88-112.29c2.1.93,5.72-2.44,8.69-.54C114.45,439.13,105.63,440.16,105.61,435.31Zm7.06,68.14c-1-1.69-2.37-5.37-1.08-7.63C112.52,497.79,112.73,500.48,112.67,503.45Zm3.27,41.42c-1.47-.37-1.06,1.13-1.64,1.64-1-.13-1.23-.94-1.08-2.18,5.32-.4,13.19.06,15.21,2.18C126.27,546,118.38,548,115.94,544.87Zm4.88,51.78c-1.63-2.27-.71-10.7,2.18-12C125.33,587.64,121.71,593.36,120.82,596.65ZM127.34,565c0-3.81,1.59-6,1.63-9.81C130.32,556.18,129.27,563.77,127.34,565Zm6-256.73c-1.36-.08-.17-1.84,0-2.17C135,306.49,132.8,307.3,133.32,308.31Zm15.75,117.74c.5,4.51-2.28,5.7-3.26,8.72C141.38,433,145.53,426.44,149.07,426.05Zm-10.32-63.77c-1.66.39-1.6-.95-3.26-.55-.58-2.76,1-3.35,2.17-4.36C139.06,358,138.73,360.3,138.75,362.28Zm4.89,228.38c2.7-1,4.27.27,7.06.54C150.05,594.29,144.13,593.5,143.64,590.66Zm79.85-383.18c.88-.15.94.51,1.63.54.06,1-.67,1.15-.54,2.18C222.69,210.59,222.63,208.29,223.49,207.48Zm-14.67,9.81c-.79.8-3.55.8-4.35,0a6.37,6.37,0,0,1,2.72-4.91C208.78,213,209,215,208.82,217.29Zm-5.43,24.53c-2.56.39-2.38-2-2.72-3.82.65-.62,1.92-.62,3.26-.54A3.8,3.8,0,0,1,203.39,241.82Zm-13,18c-1.94.31-1.65-1.62-1.63-3.27,4-.2,4.34-4,7.61-4.91C197.06,254.91,192.34,257.43,190.35,259.81ZM151.24,155.7c-1.25-.16-1.25-1.46-.54-2.18C151.58,154.05,152,155,151.24,155.7ZM154.5,450c.39,2.15,3.69,6.31.54,7.09C155.43,454,152.05,452.05,154.5,450ZM155,594.48c-.08-4.29,5.11-2.17,5.43.54C159.31,594.56,157.05,595.26,155,594.48Zm10.87-50.7c1.53-1.86-1.75-.83-2.72-.54.62-1.38,2.41-1.58,4.35-1.64C167.69,543,167.34,544,165.91,543.78Zm8.69-237.1c-1.17.09-.25-1.93-.54-2.73C176.45,303.88,174,305.29,174.6,306.68Zm-3.8,219.66c-1.3-1-.31-4.27,0-5.45C172.61,521.83,171.82,525.2,170.8,526.34Zm-2.72-28.89c2.11.14,1,5.5.54,6.55C167.38,502.88,168.43,499.47,168.08,497.45Zm7.61,155.34c-1.44.17-1.78-.75-1.63-2.17h1.63Zm-6.52-57.23c1.18-2.75,5.29.76,6.52-1.63.82.48-.15.81.54,2.18C172.81,595.81,171.23,597.06,169.17,595.56Zm5.43-316.68c-1.46-3.1,1.06-6.44,2.72-8.17C180.58,273,179.58,279.19,174.6,278.88Zm7.61,126.46c-1.53-1-3.15-3.38-1.09-4.91C183.63,401.38,184.34,403.51,182.21,405.34Zm4.34,4.36a6.33,6.33,0,0,1,1.63-5.45c1.48-.4,1.09,1.08,2.17,1.09C190.41,408.12,189.71,410.13,186.55,409.7Zm13,13.63c-.28-3,.89-4.56,3.8-4.37C203.67,422,202.5,423.52,199.59,423.33Zm3.26,50.14c2.82-2.71,8.19-.88,5.43,2.73C206.79,472.46,203.37,478.94,202.85,473.47Zm3.8,31.61c-1.15-2,2.83-1.87,6-2.18C212.25,505.38,207.16,504.34,206.65,505.08Zm6-88.84c-.42-3.7,2.74-3.8,6-3.82C218.18,415.27,215.81,416.17,212.62,416.24ZM220.77,262c-.63-.08-.46-1-.54-1.63C222,260,221.1,261.48,220.77,262Zm-.54-3.81c0-1.45-.21-3.11.54-3.82,3.25-.35,3.56,2.24,3.81,4.91C222.45,259.58,221.42,258.79,220.23,258.17ZM230.55,409.7c-2.18.48-3.94,1.54-6.52,1.63-.87-2.34,3.09-4.52,6.52-4.36Zm4.35-2.18c-2.43-4.45,6.16-7.9,6.52-2.18C239.67,406.5,236.86,406.58,234.9,407.52Zm25.52-39.79h2.72v2.72C261.65,370.14,260.1,369.88,260.42,367.73Zm-2.16,30c.77-3.94,4.71-4.71,9.23-4.9C267.25,397.29,261.54,396.29,258.26,397.7Zm28.24,10.91c-5-1.79-8.8.79-13.58-1.09.87-6,12.06-3.45,15.21-1.64C288.07,407.28,287.14,407.79,286.5,408.61Zm9.23,8.72c-2.1-6.57,9.1-5.37,12-4.91C309.69,417.65,299.23,417.63,295.73,417.33Zm24.45-.55a28.15,28.15,0,0,0-1.91-8.85,5,5,0,0,0,1.84-.45C320.72,411,321.25,414.47,320.18,416.78Zm1.36-45.48a5.89,5.89,0,0,1-1.36-.85c1.65-3.45,7.62-3.35,12.2-1.51Q327,370.11,321.54,371.3Zm30.15-36.82c1.69-.77,6.62-.12,6.52,2.72C355.42,338.86,352.46,336.59,351.69,334.48Zm8.15,73c1.38-4.62,6.84-1.54,9.77-2.73C369.71,411.06,363.46,409.33,359.84,407.52Zm13.58-79.58c-.58-2,1.14-1.76,1.62-2.73C376.18,325.7,374.87,328.25,373.42,327.94Zm52.14,13.62c-.74-.16-.44-1.36-.54-2.18C426.28,339.54,426.27,340.84,425.56,341.56ZM411.44,401c2.49.37-.44,3.3,0,0ZM387,329c1.34-2.13.79,1.8,0,0ZM390.25,407c.29-1.52,2.62-1,3.81-1.63.59-2.42-.93-2.71-1.09-4.37,4.1,0,12.49-3.14,12.49,4.91C400.43,407.39,394,408.93,390.25,407Zm4.35,10.36c3.9-4.52,15.8-3.84,20.09-3.27C410.9,419.63,398.73,417.88,394.6,417.33Zm19-52.33a2,2,0,0,1,.44-.54l6.34-.82a2.23,2.23,0,0,1,.28,1.36C417.36,365.38,417.45,366.15,413.61,365Zm7.61,19.62a4.59,4.59,0,0,1,1.83-1.85q1.6,1.59,3.29,3.07A30.28,30.28,0,0,1,421.22,384.62Zm7.6-41.42c-1.82.37-2-.91-2.17-2.18a3,3,0,0,1,2.17-.55C428.5,342.21,429.84,342.16,428.82,343.2Zm26.86,19.73a14.72,14.72,0,0,0-.45-1.94,2.93,2.93,0,0,1,2.92.2A6.7,6.7,0,0,0,455.68,362.93Zm15.51-2.29a2.93,2.93,0,0,1-.1-.37,5.6,5.6,0,0,0,.82.13l1.08.06C472.4,360.53,471.79,360.58,471.19,360.64ZM483.68,470.2c.11-1.63,2.26.52,0,0Zm1.09-124.28c-1.67-.53.24-1.83.54-2.18C487,344.28,485.07,345.58,484.77,345.92Zm.54,123.74c.64-1.66,2.88.58,0,0ZM19.78,752.54v2.18C17.64,755.1,18,752.42,19.78,752.54Zm4.89,16.9c-2.74.4-3.21-1.49-5.43-1.64-.08-1.35.86-1.68,1.09-2.73a5.74,5.74,0,0,1,4.89,2.19C25.29,768.24,24.56,768.41,24.67,769.44Zm0-20.17c1.33.31,2.8.47,2.72,2.19C25.81,753.17,23.38,750.44,24.67,749.27Zm54.87,31.62h1.08V782H79.54Zm-7.06-.55H75.2C75.39,782.2,72.05,782.64,72.48,780.34ZM29,754.18v-1.09c1.09-.18,1.7.11,1.63,1.09Zm35.85,40.33c2.64-3,6.9-4.34,10.87-6C73.44,791.27,68.75,796.93,64.87,794.51Zm23.9,31.62c1.32-1.26,2.64.55,4.35.54C92.61,829.81,89,829.12,88.77,826.13Zm-12-38.7c6-3.06,11.43-3.57,17.38-3.82C90.66,788.44,81.41,791.76,76.82,787.43Zm57,46.87c-.43-3.15,2.53-2.91,4.34-3.81.32-2.91,1.67-7.24,5.44-4.91C143.37,831.5,136.74,831,133.86,834.3Zm166.76-38.69c1.55,2.2-1.77,3.54,0,0Zm-6.51,8.71c2.3-.2.47,2.37.54,3.27C293.44,807.53,294.42,805.28,294.11,804.32Zm-3.8-4.36c4.37-.52-1.53,5.86-.55,1.64-1.22-1.72-1.07,2.51-2.72,2.18.64-3.92,0-6.37,3.27-8.17C292.42,796.11,291,799,290.31,800Zm0,30c-1.89-.52-1.22-5.74-.55-7.09C291.06,825.28,289.57,827.11,290.31,829.94ZM287,755.82c.78,1.39,3.72.62,3.8,2.72-3-.64-3.15,1.91-5.42.54C285,757,287,757.41,287,755.82Zm-101.58,49.6c.12-1.64,2.26.52,0,0Zm8.16-2.19c.31-1.86,1.77-2.58,4.34-2.18C197.55,802.82,196,803.42,193.62,803.23Zm7,26.17c-.73-.18-.45-1.37-.54-2.19C202,826.72,201.06,829,200.67,829.4Zm2.18,1.09c-.56-1.54-.62-2.33,1.62-2.19C204.63,829.73,204.28,830.65,202.85,830.49Zm2.71-80.13h-1.09v-2.18h1.09Zm6-.55v-1.63h1.62C213.27,749.37,212.72,749.92,211.54,749.81Zm7.61,28.35c-2.2-2.84,3-5.49,4.34-3.28A7.3,7.3,0,0,1,219.15,778.16Zm6-3.82c-1-.39-.08-1,0-1.63C226.09,773.11,225.2,773.7,225.12,774.34Zm2.72-.54c-.72-.19-.86-1-1.64-1.09-.16-1.25,1.57-.61,1.64-1.63C229.1,771.21,228.15,773.47,227.84,773.8Zm7.06,30.52c.59.14.36,1.09,1.08,1.1C235.75,806.92,234.27,805.44,234.9,804.32Zm-1.63-67c-2.41-.49-4-1.83-6.52-2.18v-2.72c5.54,1.42,7.4-2,11.94-.55C237.87,735.8,233.72,733.06,233.27,737.28Zm6,6c-1-.41-.08-1,0-1.64C240.21,742,239.32,742.63,239.24,743.28Zm1.09-38.7c.88-.16.94.51,1.63.54.28,2.64-1.51,3.2-2.18,4.91C238.57,709,240.32,706.23,240.33,704.58Zm1.09,59.95c1.29-.33,3.94.69,4.34-.54,1.66,1.88-.06,5-1.63,5.45C242.61,768.43,242,766.45,241.42,764.53Zm6,44.15c-1,.07-1.14-.66-2.16-.54C245.63,806.46,247.79,805.9,247.38,808.68Zm7.07,30c-1.35-.23,0-2.12,1.09-1.64C255.83,838.23,254.5,837.81,254.45,838.67Zm18.47-101.39c2.14.22,1.92,2.8,2.72,4.36C274.27,743,270.79,739.54,272.92,737.28ZM280,746c-.77-.67-1.24-2.08-.54-2.72A1.74,1.74,0,0,1,280,746Zm2.72,89.94a9,9,0,0,1-2.17-6.54C283.45,829.94,286.28,832.8,282.7,835.94Zm.54-18.54c.07-1-.66-1.15-.54-2.17,2-.74,3.14-2.31,5.43-2.73a2.41,2.41,0,0,1,1.09,2.18C286.7,813.14,287.47,818.92,283.24,817.4ZM295.19,837c-2.16-2.58-4.36-1.8-6-2.18-1.33-2.19,3.27-2.41,4.34-1.64.16-4.88-1-8.48-.54-13.62,2.37-1.3,2.61-1.74,4.89,0,.6-3.51-2-3.81-1.63-7.09.77,0,1.54.09,1.63-.55C304.35,814.2,291.3,827.51,295.19,837Zm4.89-25.62c-.67-2.12-2-.77-3.26-2.73,1.45-2.3.25-4.06,2.72-6.54C303.24,803.62,301,808.51,300.08,811.41Zm4.34-108.47a3.5,3.5,0,0,1,2.72-.54C308.31,705.57,303.7,706.18,304.42,702.94Zm33.14,9.81c-3.3,4-10.79,6.57-15.76,7.09C322.23,711.7,331.89,713.82,337.56,712.75Zm-7.6,48c-1.35-.09-.16-1.84,0-2.18C331.31,758.62,330.12,760.38,330,760.72Zm-.54,68.14c-1.57-3,2.33-5.28,1.62-9.27C333.34,820.74,330.57,826.31,329.42,828.86Zm7.06-69.23c.59,1.23,2.61,1,2.17,3.27a18.16,18.16,0,0,0-3.26,1.09C335.47,762.25,336.62,761.59,336.48,759.63Zm1.63,69.77c-.75-.18-.45-1.37-.55-2.19C339.46,826.72,338.49,829,338.11,829.4Zm.54-7.63c2,1.65-1.65,1.83,0,0Zm3.26,6c-2.35-.85-1.56-4.46-.55-6C342.61,822.7,341.56,825.93,341.91,827.76ZM349.51,722c-.39-1.67.56-2,.54-3.27C350.88,718.76,351.25,722.79,349.51,722Zm-3.26-13.63a3,3,0,0,0-2.17-.54c1.4-4.59,6-6,7.61-10.36C355.24,702.35,346.58,703.85,346.25,708.39Zm12,118.82c-.29,4.11-4.2.19,0,0ZM368,834.3c-2-.48-2.89,1-3.8,0V831c1.57.83,1.7,0,3.8.55Zm4.35-59.42c1.16-.25,1,.79,1.09,1.65A1.51,1.51,0,0,1,372.33,774.88ZM374,809.22c1.92-.81,4.33-1.73,4.35,1.65C376.29,812.3,375,811.36,374,809.22Zm3.8-34.34c-.07-1.34-.08-2.62.55-3.26h1.62C380.15,773.66,379.5,774.82,377.76,774.88Zm10.32,59.42c-1.18.1-1.73-.45-1.62-1.64C387.64,832.57,388.18,833.11,388.08,834.3Zm15.76-36.52c-.47-1.73.47-2.07,1.08-2.72C406.52,795,405.94,798.36,403.84,797.78Zm7.6,3.27c-1.29-1.86.73-5.06,3.8-4.36C417.12,800.19,412.34,800.49,411.44,801.05Zm42.91-142.26c1.81-.11,2.14,2.7,1.09,3.82C454.34,662.08,454.26,660.52,454.35,658.79Zm-2.72,3.27c-10.62-2.44,3.36-12.49,0,0ZM439.15,771.62c2,1.65-1.66,1.84,0,0Zm3.25-49.06a34.81,34.81,0,0,0-3.8.55c0-.78.09-1.54-.54-1.63C438.28,719.71,443.49,719.69,442.4,722.56Zm7.6,57.23c-1.15-.16-.11-2.58,1.09-2.17C451.49,779.1,450,778.71,450,779.79Zm-3.8-109.55c-.11-.94.93-1.41,0-1.64,6.07-.3,14.08-1.38,25-1.63C464.9,671.71,455.57,670.71,446.2,670.24Zm13,66c-1.53-.55.15-2.31,0-3.27C460.77,733.47,459.09,735.23,459.24,736.19Zm7.6-1.09c.57-3.84,0-7.31,5.44-7.09C474.3,732.69,469.81,733.81,466.84,735.1Zm6,63.23c-1.54-.73.42-2.43.54-3.27C474.64,795.52,472.91,797.45,472.82,798.33Zm1.63-3.82c-1.34-1.43,1.57-3.16,0,0Zm10.86-98.11c-1.69-.12-.91-2.71-1.08-4.36C485.92,692.16,485.15,694.75,485.31,696.4Zm8.15-228.92c.11-1.64,2.26.52,0,0Zm2.72-179.33c-2.48.39-4.86-1.28-3.26-3.27,2.71,2.19,1.47-.08,4.34.54C497.73,287.16,496.41,287.11,496.18,288.15Zm2.17,248h4.89C503,538.32,498.84,538.13,498.35,536.15ZM507,463.66c.11-1.63,2.26.52,0,0Zm1.63,226.2c.79.12.19,1.63,1.09,1.64C509.53,692.86,508.21,691,508.67,689.86ZM633.06,497.45c.17,1.44-.75,1.79-2.16,1.64C630.45,497.14,632.05,496.38,633.06,497.45Zm-5.42,36c.94.5,1.88,1,1.62,2.72C627.57,536.4,627.53,535,627.64,533.43Zm-7.07-33.8c.8-1.8,1.36,2.13,0,0Zm-9.23,36.52c-.93,2.45-5-.62-5.43.55C605.62,534.75,610.77,535.45,611.34,536.15ZM595,508.35c-.64-.08-.46-1-.54-1.63C596.3,506.34,595.37,507.84,595,508.35Zm-4.89-62.13c1.89-.44,2.09.81,3.81.54.06,1-.67,1.15-.55,2.18-1.71.09-1.82-1.45-3.8-1.09A2.51,2.51,0,0,0,590.15,446.22Zm-4.89-1.1c-.52,1.12-2.08,1.18-3.8,1.1C581,444.14,584,445.52,585.26,445.12Zm-9.77,91c0,.53-.67.43-1.09.55.35.55,1.25.56,1.09,1.63-1.66.4-1.6-.94-3.27-.54C572.21,536.13,574.13,536.43,575.49,536.15Zm-12,.55c1.36-2.13.8,1.8,0,0Zm0,26.71c2.37,1.05.06,3.37,0,0Zm-10.86,181c-3-.5-5.67.23-10.32.54C542.09,740.39,554.71,734.41,552.67,744.37ZM533.11,379.18c1.42,1.91,5.87-.8,7.61,1.63-1.94,3.52-4.47-.91-7.61,1.64C531.91,382.22,532.69,379.55,533.11,379.18Zm-2.71,8.71c.3,1.22-1,.78-1.09,1.64-.64-.09-.45-1-.54-1.64Zm-1.09-211.48h1.09v1.09h-1.09Zm-2.71,3.82c3.18.72-2,2.57,0,0ZM525,182.4c.11-1.63,2.26.53,0,0Zm3.8,161.34c-.55,2.55-2.74,2.22-4.35,1.64C525.13,344.09,527.36,344.33,528.77,343.74ZM520.62,729.1c1.6-1.81,5-.71,7.06,0C526.1,730.9,521.49,730.92,520.62,729.1Zm4.89-375.55c3.54-.46,3.91,2.26,7.6,1.64C532.61,358,525.51,356.39,525.51,353.55Zm16.29,4.37c-1.13.23-1.43-.38-2.16-.55-.48-1.75,1.4-1.13,1.62-2.18C542.45,355.1,541.51,357.13,541.8,357.92ZM546.15,83.2c-1.59-.46.32-1.75,0-2.72C548.54,80.36,546.22,82.42,546.15,83.2Zm6.52.55c-1.52-.55.15-2.32,0-3.27h2.17C555.79,83.24,552.49,81.75,552.67,83.75Zm-6.52-18.53c4,2,10.29-4.16,10.87,2.72C553.06,70.15,545.09,71.63,546.15,65.22Zm12,97.56c-.63-.08-.46-1-.54-1.63C559.37,160.77,558.44,162.28,558.1,162.78Zm71.16-59.41c1.86-.61,1.61,4-.54,2.73C628.27,104.56,629.48,104.68,629.26,103.37Zm-7.6,9.81c-.11,2.07-2.29,2.07-2.18,4.36C617.14,116.57,619.61,113.15,621.66,113.18Zm-4.35,35.43c2.08-.25,2.12,3.17,1.63,3.82C617.22,152.33,617.11,150.63,617.31,148.61Zm-13.58-77.4c2-.57,1.75,1.15,2.72,1.64C605.73,74.23,602.9,73.19,603.73,71.21Zm-11.4,40.88c.49,2.38.67,4.71-.5,6.17,0-2.11-.08-4.21-.13-6.32A1.58,1.58,0,0,1,592.33,112.09Zm-20-5.33c-.12,1-.26,2.1-.37,3.16a17.91,17.91,0,0,1-.83-1.64C571.17,107.39,571.74,107.06,572.35,106.76Zm-8.82,50c-1.18-.08-1.16-1.38-1.08-2.73h1.63C564.53,155.6,563.31,155.47,563.53,156.79Zm-.31-30.61c-.79-.91-1.57-1.83-2.34-2.75.64-.13,1.28-.24,1.91-.35a3.77,3.77,0,0,0,3.44-.45c.8-.08,1.54-.14,2.19-.18A14.92,14.92,0,0,1,563.22,126.18ZM569,44c-3.33-.19-1.78-3.55.54-3.81C569.83,41.91,569.14,42.68,569,44Zm6.52,286.7c1.35-2.12.79,1.81,0,0Zm-3.27-60.5c-2.32-.76.26-4-1.07-4.9,1.26-1.42,4.5-.2,5.42.54C574,266.15,573.59,268.62,572.22,270.16Zm4.9,33.25c.09-1.54,1-2.27,1.09-3.82C580.54,299.71,578.85,303.88,577.12,303.41Zm2.17,36.52c-1.32-1.27.84-1.46,1.08-2.73C581.63,337.63,580.9,340.58,579.29,339.93Zm3.8-2.73c-.54-4.65,5.65-4.56,5.44.55C586,336.54,585.91,336.11,583.09,337.2ZM591.24,286c-.17-3.07,5-.78,6.51-2.18.64.64.62,1.92.55,3.27C594.94,286.49,592.27,288.55,591.24,286Zm7.6,19.08c-2.06-.15-1.73-2.3-1.09-3.82C598.6,302,598.9,303.36,598.84,305.05ZM594,330.12v-2.73h1.63c0,.86-.26,2.08.54,2.18C596,330.31,594.77,330,594,330.12Zm5.43,0c-3.38-.43-2.18-5.45-5.43-6,.29-1.91,3.15-.87,4.34-.54C598,326.4,599.84,327.12,599.39,330.12Zm-1.09-66.5c.88-.15.94.52,1.63.55C600.14,265.22,597.45,265,598.3,263.62Zm4.35-42.51c-.21-3.61-2.6-5-2.72-8.73,3.27,1.44,3.08,6.37,5.44,8.73C604.9,222.7,604,220.4,602.65,221.11ZM609.17,147c-1.45,0-3.11.2-3.8-.55a3.3,3.3,0,0,1,0-.45,37.85,37.85,0,0,0,3.82.44A2.74,2.74,0,0,1,609.17,147Zm-1.64-73V71.21c1-.07,1.15.67,2.18.55A2.05,2.05,0,0,1,607.53,73.94Zm3.81,126.45c2.56,2.16,6.78,2.65,7.6,6.54,2.56-.14,3.41.87,4.89,0C620.74,210,611.14,206,611.34,200.39Zm13-40.33c-1,1.06-2.18-.57-3.8-.55v-2.18c1-1.08,2.57-.26,3.8,0Zm3.27-3.27c1.12-1,2.62,1,3.8,1.63C631.08,161.25,627.2,159.41,627.64,156.79Zm15.2-57.23c-1.13-2.6-.66-8.29,3.26-7.63C645.52,95.55,645.72,97.63,642.84,99.56ZM647.19,147c1.2-.3.77,1,1.63,1.09C648.6,149.42,646.71,148.1,647.19,147Zm10.32,82.3c-1.34,1.23-4.35,1.68-4.34-1.09,1.38-.06,1.9-1,2.71-1.63C656.83,227.05,657.77,227.57,657.51,229.28Zm1.62-78.49c-3-1.41.32-6.66,2.73-4.36C661.69,148.62,659.78,149.08,659.13,150.79Z"/>
      </g>
    </g>
  </g>
</svg>
