<svg xmlns="http://www.w3.org/2000/svg" viewBox="0 0 250.02 247.07">
  <defs>
    <style>
      .cls-1 {
        fill: none;
        stroke: #010101;
        stroke-linecap: round;
        stroke-width: 0.71px;
      }
    </style>
  </defs>
  <title>svgGroup</title>
  <g id="Layer_2" data-name="Layer 2">
    <g id="Layer_1-2" data-name="Layer 1">
      <g id="svgGroup">
        <path class="cls-1" d="M.35,243.27V3.8c3.12-.24,6.23-.47,9.35-.67q14.84-1,34.47-1.74Q66.69.51,94.76.38c3.12,0,6.23,0,9.35,0,12.5,0,25,.5,37.38,1.63a241.54,241.54,0,0,1,34.43,5.55,140.5,140.5,0,0,1,27.4,9.5,76.24,76.24,0,0,1,23,16q11.77,12.6,11.77,29.22a41.37,41.37,0,0,1-3.15,16.24,44.27,44.27,0,0,1-11.7,15.93,86.24,86.24,0,0,1-19.56,12.76,157.68,157.68,0,0,1-23.5,9.09q28.56,6.89,45.56,18.2a74.2,74.2,0,0,1,6.31,4.68c9.53,8,15.42,17.65,17,27.88a47.71,47.71,0,0,1,.67,8.08,48.69,48.69,0,0,1-7.49,26.48q-9.33,14.87-30.28,25.64A152.93,152.93,0,0,1,174.73,240q-30.43,6.68-72.64,6.68-20.36,0-40.69-.49-8.74-.22-17.48-.55-6.51-.24-13-.53Q12.45,244.31.35,243.27ZM105.62,132.48H48.2v85q17.42,1.32,34.94,1.77,11.24.3,22.48.29,44.82,0,70-11,23-10,25-28.38a31.36,31.36,0,0,0,.19-3.62,29.43,29.43,0,0,0-4.39-15.82q-5.55-9-18.1-15.44c-.72-.37-1.45-.73-2.18-1.08a105.45,105.45,0,0,0-23.54-7.57Q132.82,132.49,105.62,132.48ZM48.2,28.57V107h55.4A223.2,223.2,0,0,0,129,105.68a139.73,139.73,0,0,0,24.18-4.76,92,92,0,0,0,13.67-5.25,58,58,0,0,0,13.81-9c6.4-5.83,9.78-13,9.61-20.24A26.77,26.77,0,0,0,186.83,53q-5.47-9.73-19.77-16a107.08,107.08,0,0,0-22.6-6.76,186.42,186.42,0,0,0-22.88-2.83q-9-.57-18-.56-16.62,0-30.22.52T48.2,28.57Z"/>
      </g>
    </g>
  </g>
</svg>
